<svg xmlns="http://www.w3.org/2000/svg" width="80" height="60" viewBox="0 0 80 60" fill="none"><g clip-path="url(#clip0_1833_737)"><path d="M7.84899 21.6465C7.23202 21.0966 6.6142 20.548 5.99891 19.9964C5.41386 19.4722 4.83637 18.9393 4.24502 18.4226C4.11692 18.3111 4.14758 18.2555 4.24124 18.1551C5.29374 17.0288 6.34331 15.8996 7.39245 14.7708C9.88344 12.0906 12.374 9.40995 14.865 6.72933C16.8927 4.54718 18.9213 2.36545 20.9465 0.181224C20.9902 0.133948 21.0998 0.104919 21.0393 0H21.1233C21.1242 2.46498 21.125 4.93037 21.1254 7.39534C21.1254 7.41566 21.1204 7.4364 21.1179 7.45672C21.0675 7.50399 21.0145 7.54878 20.9675 7.59896C18.878 9.83585 16.789 12.0732 14.6995 14.3105C12.416 16.7555 10.1325 19.2006 7.84899 21.6461V21.6465Z" fill="#FFCC08"></path><path d="M0 53.6562C0.128518 53.5985 0.104578 53.4724 0.125998 53.3704C0.196977 53.0341 0.292736 52.9516 0.635031 52.9512C2.13273 52.9512 3.63043 52.9512 5.12812 52.9512C5.45992 52.9512 5.60818 53.0731 5.67034 53.4015C5.71402 53.6317 5.78877 53.8573 5.79339 54.0933C5.79843 54.3578 5.62414 54.4661 5.37802 54.3624C5.19658 54.2861 5.08067 54.1343 4.95089 54.0008C4.64345 53.6844 4.24992 53.6226 3.83706 53.6188C3.67873 53.6176 3.60817 53.6951 3.60859 53.8664C3.61405 55.5182 3.61069 57.1695 3.61321 58.8212C3.61321 59.0634 3.67705 59.2679 3.9618 59.34C4.092 59.3732 4.20162 59.4686 4.19322 59.6237C4.18482 59.7834 4.04874 59.7863 3.93156 59.8057C3.56281 59.8663 3.19153 59.8286 2.82194 59.8306C2.52248 59.8323 2.22135 59.8626 1.92273 59.7962C1.78245 59.7651 1.6909 59.7021 1.68208 59.5549C1.67242 59.3993 1.77321 59.3201 1.90803 59.3044C2.12727 59.2787 2.18355 59.1443 2.18355 58.9589C2.18355 57.2657 2.18229 55.5729 2.18523 53.8797C2.18523 53.7387 2.14113 53.6653 1.99371 53.6387C1.51744 53.5533 1.11004 53.6786 0.760189 54.0033C0.643431 54.1119 0.525832 54.2202 0.406554 54.3263C0.287276 54.4321 0.152878 54.4669 0 54.4018V53.6553L0 53.6562Z" fill="#231F20"></path><path d="M11.2547 60.0008C11.2388 59.9211 11.1678 59.9228 11.1098 59.9037C10.4798 59.6976 10.1212 59.2058 10.1212 58.546C10.1212 57.8348 10.1178 57.1232 10.1228 56.412C10.1245 56.1955 10.0598 56.0279 9.87631 55.8956C9.68353 55.7567 9.71251 55.5618 9.94435 55.4959C10.2992 55.3951 10.6655 55.3312 11.0355 55.3196C11.2682 55.3122 11.3807 55.4474 11.3807 55.69C11.382 56.6015 11.3761 57.5134 11.3837 58.4249C11.3862 58.7222 11.4521 59.0146 11.744 59.1718C12.185 59.4086 12.7499 59.2688 12.8822 58.7115C12.9187 58.5576 12.9372 58.4009 12.936 58.2399C12.9309 57.6805 12.933 57.1211 12.9347 56.5617C12.9355 56.3104 12.873 56.0918 12.6802 55.9085C12.4979 55.7356 12.5311 55.6112 12.7684 55.5307C13.0867 55.4229 13.4206 55.3802 13.7508 55.3259C13.9171 55.2985 14.0985 55.4345 14.1502 55.5996C14.1812 55.6987 14.1964 55.8003 14.1955 55.9052C14.1922 56.2299 14.2035 56.5546 14.1926 56.8789C14.1682 57.5901 14.2556 58.2988 14.2346 59.0092C14.2295 59.1743 14.3408 59.2547 14.4429 59.3472C14.5042 59.4028 14.5769 59.4484 14.6302 59.5102C14.6852 59.574 14.7201 59.6537 14.6731 59.7399C14.6315 59.8158 14.5584 59.8349 14.4769 59.8345C14.1481 59.8345 13.8192 59.8353 13.4908 59.8336C13.2972 59.8328 13.1825 59.7188 13.1103 59.5566C13.0645 59.4534 13.0242 59.4364 12.9326 59.521C12.7302 59.708 12.4862 59.8258 12.2186 59.8983C12.1552 59.9157 12.0725 59.9099 12.0531 60.0003H11.2551L11.2547 60.0008Z" fill="#231F20"></path><path d="M48.443 57.061C48.2347 56.2797 47.8201 55.6672 47.0306 55.3533C46.6337 55.1953 46.217 55.204 45.8092 55.2384C45.1406 55.2952 44.5694 55.5673 44.1759 56.1288C43.6903 56.8213 43.6332 57.5981 43.789 58.3914C43.9461 59.1922 44.6727 59.8138 45.4988 59.915C45.5719 59.9241 45.6601 59.898 45.6904 60H46.0683C46.1066 59.8893 46.2032 59.9167 46.2817 59.9191C46.4871 59.9258 46.6841 59.8872 46.881 59.8366C48.149 59.5107 48.6803 57.9497 48.443 57.061ZM46.9789 58.7675C46.8239 59.1383 46.5744 59.4041 46.1389 59.4563C45.8201 59.4945 45.5564 59.4057 45.4043 59.1312C44.8953 58.2093 44.8134 57.2655 45.2947 56.3009C45.4951 55.8986 46.0087 55.6378 46.3884 55.7995C46.6803 55.9239 46.876 56.1362 46.9953 56.4228C47.1519 56.7989 47.191 57.195 47.2053 57.5943C47.196 57.9995 47.1347 58.3943 46.9789 58.7675Z" fill="#231F20"></path><path d="M77.323 58.1339C77.9337 58.0986 78.5347 58.0119 79.0849 57.7324C79.5196 57.5114 79.8963 57.2319 79.9211 56.6853C79.9232 56.638 79.9564 56.6123 80.0001 56.5999V56.434C79.956 56.4216 79.927 56.3954 79.9203 56.3486C79.869 55.9936 79.6473 55.7518 79.3633 55.5611C78.8795 55.2355 78.3381 55.175 77.7779 55.2762C77.0139 55.4143 76.3873 55.7647 76.0126 56.4705C75.7585 56.9495 75.6863 57.4504 75.7518 57.9912C75.8556 58.8492 76.2886 59.4456 77.0769 59.8109C77.2239 59.8789 77.4125 59.8515 77.5225 60H78.6561C78.6699 59.9328 78.7262 59.9262 78.7795 59.9079C79.2117 59.7591 79.5998 59.543 79.893 59.1855C79.9211 59.1511 79.9576 59.1354 80.0001 59.1291V58.7144C79.7497 58.6166 79.5591 58.7066 79.3822 58.8861C78.9979 59.2751 78.1655 59.4771 77.6384 59.1694C77.2886 58.9645 77.1643 58.6402 77.108 58.2765C77.0828 58.1135 77.2214 58.1397 77.323 58.1339ZM77.0185 57.0905C77.0437 56.8242 77.0958 56.4846 77.2894 56.1711C77.533 55.7771 78.1239 55.7377 78.4301 55.8895C78.6355 55.9911 78.751 56.2851 78.6863 56.5592C78.6032 56.9088 78.394 57.1697 78.0643 57.3215C77.8556 57.4173 77.6304 57.4753 77.4011 57.5068C77.0479 57.5558 77.0181 57.5272 77.0185 57.0905Z" fill="#231F20"></path><path d="M16.0842 60.0006C16.0238 59.8691 15.8831 59.8911 15.7781 59.8558C15.3854 59.7236 15.1048 59.4718 14.9217 59.1115C14.8133 58.8979 14.8919 58.6619 15.0989 58.5392C15.2862 58.428 15.4559 58.4753 15.6109 58.7005C15.7865 58.9555 15.9788 59.189 16.2787 59.3072C16.55 59.4138 16.8238 59.4109 17.0973 59.3122C17.3354 59.2259 17.4597 59.048 17.4639 58.8075C17.4677 58.5877 17.335 58.4409 17.1372 58.3418C16.8486 58.197 16.5294 58.1971 16.2237 58.1332C15.776 58.0395 15.3606 57.8889 15.13 57.4531C14.7907 56.8124 15.0574 55.9187 15.7096 55.5873C16.4496 55.2116 17.217 55.1776 17.9998 55.4671C18.2951 55.5761 18.4257 55.7847 18.4349 56.0833C18.4379 56.187 18.4324 56.2907 18.437 56.3943C18.4429 56.5175 18.3997 56.6162 18.2842 56.6643C18.1699 56.7116 18.0775 56.6448 18.0061 56.5673C17.8747 56.425 17.7474 56.2782 17.6277 56.126C17.3354 55.7545 16.5832 55.7682 16.3169 56.153C16.1015 56.4644 16.2304 56.853 16.6071 56.9691C16.8595 57.0471 17.1237 57.0869 17.3833 57.1421C17.8528 57.2412 18.2888 57.3971 18.5391 57.8437C18.9343 58.5495 18.5387 59.5656 17.7701 59.843C17.6651 59.8807 17.5252 59.867 17.4702 60.0014H16.0842V60.0006Z" fill="#231F20"></path><path d="M12.0258 44.8036C11.7801 44.3117 11.5231 43.8286 11.0812 43.4823C10.9565 43.3845 10.9535 43.3484 11.0321 43.2231C11.6688 42.2034 11.9678 41.114 11.7184 39.9109C11.3303 38.039 9.82922 36.7924 7.89599 36.7829C5.39115 36.77 2.88589 36.7816 0.380623 36.7754C0.214306 36.775 0.189946 36.8281 0.190366 36.974C0.194566 39.1645 0.193306 41.3545 0.193306 43.545C0.193306 45.7354 0.194986 47.9117 0.189946 50.0951C0.189526 50.2589 0.218086 50.3211 0.402463 50.3187C0.975754 50.3116 1.54905 50.3307 2.12234 50.3319C3.4659 50.3348 4.80946 50.3419 6.15302 50.3299C7.1526 50.3211 8.15471 50.3925 9.15219 50.2946C10.0035 50.2104 10.7511 49.8957 11.3555 49.274C12.282 48.3219 12.7616 46.277 12.0258 44.8036ZM4.16477 40.11C4.68892 40.1187 5.21307 40.1133 5.73722 40.1133C6.26138 40.1133 6.74395 40.1125 7.2471 40.1137C7.72757 40.1146 8.14169 40.4048 8.26475 40.8245C8.39285 41.2616 8.22107 41.7112 7.81661 41.9732C7.59906 42.1142 7.3668 42.1885 7.09338 42.1814C6.22064 42.159 5.34705 42.1594 4.4743 42.154C3.98375 42.1507 3.98375 42.1532 3.98375 41.6635C3.98375 41.2081 3.98921 40.7524 3.98039 40.297C3.97787 40.1556 4.01483 40.1075 4.16477 40.11ZM7.60578 47.1852C7.44828 47.2424 7.28742 47.2731 7.11606 47.2727C6.14462 47.2698 5.17317 47.2702 4.20215 47.2797C4.03667 47.2814 3.97409 47.2544 3.97871 47.0716C3.99257 46.5271 3.98921 45.9813 3.98039 45.4364C3.97787 45.2875 4.00811 45.234 4.17275 45.2378C4.69648 45.2494 5.22105 45.2423 5.7452 45.2423C6.26936 45.2423 6.75151 45.2411 7.25466 45.2423C7.79183 45.244 8.20595 45.5961 8.29919 46.1285C8.37479 46.5602 8.07785 47.0131 7.60578 47.1852Z" fill="#2DABE2"></path><path d="M38.467 49.0485C38.3843 48.4098 38.4511 47.7658 38.3893 47.1259C38.2734 45.927 37.8891 44.8584 36.9173 44.0522C37.4792 43.6814 37.7115 43.4563 37.9744 42.9939C38.4763 42.1106 38.6434 41.1621 38.4985 40.1635C38.3826 39.3623 38.0932 38.6337 37.5053 38.0473C36.6123 37.1566 35.4859 36.8169 34.2595 36.7866C32.7917 36.7506 31.3225 36.7721 29.8538 36.7472C28.6787 36.7278 27.5031 36.7402 26.328 36.7315C26.1738 36.7302 26.1163 36.756 26.1167 36.9285C26.1222 41.3226 26.1217 45.7164 26.1175 50.1105C26.1175 50.2665 26.1495 50.3191 26.32 50.3183C27.5585 50.3104 28.7971 50.3104 30.0357 50.3179C30.2066 50.3187 30.2591 50.2801 30.2578 50.1039C30.2494 48.9431 30.2524 47.7824 30.2545 46.6217C30.2549 46.4914 30.2599 46.3587 30.283 46.2306C30.3103 46.0813 30.378 45.9528 30.5644 45.9536C31.2221 45.9552 31.8794 45.9561 32.5371 45.9606C33.2331 45.9652 33.7064 46.2916 33.9828 46.9215C34.1802 47.3702 34.1659 47.85 34.2226 48.319C34.2889 48.8664 34.3297 49.4172 34.3918 49.965C34.4246 50.2536 34.5388 50.3423 34.8299 50.3423C36.1105 50.3423 37.391 50.3428 38.6716 50.3411C38.7354 50.3411 38.8064 50.3652 38.8669 50.3187C38.5733 49.9372 38.5246 49.4922 38.467 49.0485ZM34.6711 41.6042C34.6472 42.3751 34.0987 42.9151 33.3263 42.9217C33.0025 42.9246 32.6783 42.9238 32.354 42.923C32.21 42.923 32.0659 42.9225 31.9219 42.9225C31.6552 42.9221 31.388 42.9209 31.1213 42.9209C30.8987 42.9209 30.6766 42.9217 30.4544 42.9246C30.3271 42.9263 30.2734 42.906 30.2746 42.76C30.2826 41.9803 30.2814 41.2007 30.2755 40.4211C30.2746 40.2954 30.304 40.2573 30.4363 40.2598C31.4137 40.2792 32.3914 40.2826 33.3683 40.3079C34.1012 40.3269 34.6917 40.9274 34.6711 41.6042Z" fill="#2DABE2"></path><path d="M79.2859 49.0634C79.2006 48.4385 79.2649 47.8089 79.2099 47.1823C79.1032 45.9602 78.7202 44.8716 77.7382 44.0538C78.3863 43.584 78.5459 43.4256 78.7941 42.9889C79.2964 42.1048 79.4669 41.1576 79.3199 40.1577C79.2031 39.364 78.9155 38.6424 78.3359 38.0581C77.4652 37.1798 76.3636 36.8298 75.1615 36.7879C73.7991 36.7406 72.4349 36.7526 71.0712 36.7452C69.7629 36.7377 68.4547 36.7402 67.1464 36.7315C66.9918 36.7302 66.9355 36.7568 66.9355 36.9289C66.941 41.3226 66.9406 45.7164 66.9368 50.1105C66.9364 50.266 66.9679 50.3191 67.1388 50.3183C68.3774 50.3104 69.6159 50.3104 70.8541 50.3179C71.0246 50.3187 71.0779 50.281 71.0767 50.1043C71.0683 48.9228 71.0716 47.7418 71.0733 46.5603C71.0737 46.4433 71.0792 46.3243 71.1036 46.2107C71.1338 46.0685 71.2056 45.9523 71.3803 45.9527C72.0452 45.9552 72.7096 45.9552 73.3741 45.9606C74.0532 45.9669 74.5177 46.2907 74.7945 46.8983C74.9982 47.3445 74.9881 47.8251 75.0423 48.295C75.1074 48.8565 75.151 49.4205 75.2136 49.9824C75.2426 50.2428 75.3682 50.3423 75.6261 50.3423H79.7113C79.3947 49.9496 79.3464 49.5051 79.2859 49.0634ZM74.1809 42.9209C74.0981 42.9221 74.015 42.923 73.9322 42.9234C73.865 42.9238 73.7978 42.9242 73.7306 42.9242H73.6265C73.3287 42.9242 73.0313 42.9221 72.734 42.9221C72.4669 42.9225 72.2002 42.9209 71.9335 42.9209C71.8722 42.9209 71.8104 42.9209 71.7491 42.9213C71.6571 42.9213 71.5643 42.9221 71.4723 42.923C71.4034 42.9238 71.3346 42.9246 71.2657 42.9259C71.125 42.9283 71.0935 42.8848 71.0943 42.7525C71.1006 41.9795 71.1002 41.2061 71.0947 40.4331C71.0935 40.3029 71.1216 40.2568 71.264 40.2598C72.2489 40.2797 73.2338 40.283 74.2182 40.3074C74.9213 40.3249 75.4925 40.9141 75.49 41.5905C75.4875 42.3399 74.9305 42.9101 74.1809 42.9209Z" fill="#2DABE2"></path><path d="M13.1027 43.5307C13.1027 41.3473 13.1056 39.1639 13.0977 36.9805C13.0968 36.7918 13.1518 36.7586 13.3291 36.7586C17.1149 36.7636 20.9007 36.764 24.6861 36.7578C24.8781 36.7578 24.9125 36.8117 24.9108 36.9871C24.9024 38.0305 24.9029 39.0739 24.9108 40.1169C24.9121 40.2757 24.8663 40.3072 24.7134 40.3068C22.327 40.3018 19.941 40.3052 17.5546 40.2998C17.3879 40.2998 17.3245 40.3271 17.3329 40.5088C17.3493 40.8741 17.3484 41.2415 17.3329 41.6069C17.3257 41.7794 17.3896 41.8055 17.5446 41.8051C19.5248 41.8006 21.5051 41.8051 23.4854 41.7968C23.6899 41.796 23.7374 41.847 23.7353 42.0452C23.7243 43.0679 23.7264 44.0905 23.734 45.1128C23.7353 45.2745 23.6941 45.3189 23.5274 45.3185C21.5542 45.3122 19.5807 45.3168 17.6071 45.3106C17.4391 45.3102 17.3791 45.3409 17.3841 45.5212C17.398 46.0185 17.3971 46.5161 17.3841 47.0133C17.3795 47.19 17.4354 47.2277 17.6063 47.2273C19.9646 47.2215 22.3228 47.2265 24.6811 47.2186C24.8907 47.2178 24.9469 47.2642 24.944 47.4757C24.9301 48.3599 24.9352 49.2444 24.9415 50.129C24.9423 50.2733 24.9012 50.3156 24.7542 50.3152C20.9263 50.3114 17.0985 50.311 13.2711 50.3164C13.1048 50.3164 13.0993 50.248 13.0998 50.1211C13.1027 47.924 13.1019 45.7265 13.1019 43.5294L13.1027 43.5307Z" fill="#2DABE2"></path><path d="M53.9271 43.5289C53.9271 41.3455 53.9292 39.1617 53.9233 36.9783C53.9229 36.807 53.9679 36.7598 54.1426 36.7598C57.9355 36.7647 61.7285 36.7643 65.5215 36.7598C65.6832 36.7598 65.731 36.7971 65.7298 36.9626C65.7218 38.0059 65.7214 39.0493 65.7298 40.0927C65.731 40.2611 65.6949 40.3096 65.516 40.3092C63.1367 40.3025 60.7575 40.3067 58.3778 40.3009C58.1968 40.3005 58.1212 40.3303 58.1321 40.5319C58.151 40.8831 58.1472 41.2369 58.1334 41.5885C58.1266 41.7602 58.1749 41.8075 58.3509 41.8071C60.3245 41.8009 62.298 41.8029 64.2712 41.8029C64.4568 41.8029 64.5496 41.8937 64.5496 42.0754C64.5496 43.0844 64.5454 44.0929 64.5538 45.1019C64.5551 45.2702 64.5168 45.3208 64.3383 45.32C62.3791 45.3134 60.4194 45.32 58.4601 45.3096C58.2384 45.3084 58.1976 45.3731 58.2039 45.573C58.2186 46.0561 58.2165 46.5405 58.2048 47.0236C58.2006 47.1899 58.2514 47.2289 58.4148 47.2284C60.7802 47.2231 63.1456 47.2276 65.511 47.2202C65.7105 47.2193 65.7667 47.262 65.7638 47.4657C65.7508 48.3498 65.7546 49.2344 65.7617 50.1189C65.763 50.2732 65.7235 50.3171 65.5643 50.3167C61.7503 50.3122 57.9364 50.3117 54.1224 50.318C53.9372 50.318 53.925 50.245 53.925 50.0994C53.9284 47.909 53.9275 45.7185 53.9275 43.5281L53.9271 43.5289Z" fill="#2DABE2"></path><path d="M48.2841 45.7726C47.8515 45.7726 47.4462 45.7684 47.0413 45.775C46.9141 45.7771 46.8578 45.7556 46.859 45.6092C46.8662 44.6902 46.8649 43.7712 46.8599 42.8522C46.859 42.7324 46.8964 42.7034 47.0136 42.7038C48.8049 42.7071 50.5966 42.7071 52.3878 42.7038C52.5079 42.7038 52.5382 42.7394 52.5382 42.8547C52.5352 45.3284 52.5352 47.8017 52.5382 50.2754C52.5382 50.3919 52.5063 50.4259 52.3874 50.4251C51.5688 50.4201 50.7499 50.4205 49.9313 50.4251C49.8217 50.4255 49.7725 50.3944 49.7427 50.287C49.6936 50.1087 49.6213 49.9366 49.5625 49.7603C49.5428 49.7014 49.5298 49.6454 49.4554 49.7085C48.5571 50.4707 47.4479 50.4935 46.3555 50.5586C44.6919 50.6577 43.1727 50.2293 41.8493 49.2283C40.2156 47.9929 39.25 46.3386 38.9035 44.3443C38.8052 43.7795 38.919 43.2022 39.0131 42.6362C39.2311 41.3282 39.7158 40.1343 40.5843 39.1096C41.5852 37.9285 42.8783 37.2053 44.3596 36.7827C44.8838 36.633 45.4218 36.4916 45.9623 36.5082C48.4235 36.5836 50.5852 37.2725 51.9279 39.5176C52.2127 39.9937 52.4042 40.5092 52.513 41.0553C52.5386 41.1847 52.4966 41.193 52.3941 41.193C51.1556 41.1914 49.917 41.1905 48.6784 41.1947C48.5541 41.1951 48.4932 41.1263 48.4197 41.0504C47.938 40.5511 47.4033 40.1239 46.7259 39.9095C45.6881 39.5807 44.5554 40.0049 43.8817 40.977C43.4113 41.6558 43.1551 42.4176 43.0854 43.2304C42.9724 44.5538 43.7213 46.2602 45.0022 46.9088C45.7582 47.2916 46.5138 47.3575 47.2912 47.0179C47.8288 46.7828 48.1694 46.3788 48.2841 45.773V45.7726Z" fill="#2DABE2"></path><path d="M0.122559 30.9955C0.162878 30.1964 0.456034 29.5897 1.20194 29.2355C1.73029 28.9842 2.26201 28.725 2.74668 28.4032C3.30275 28.0342 3.57911 27.2918 2.99196 26.6967C2.36281 26.0594 1.703 25.4531 1.02051 24.8717C0.191018 24.1654 0.0137802 22.9615 0.604291 22.0538C0.855028 21.6681 1.15658 21.328 1.47368 20.9971C2.04949 20.3962 2.61942 19.7895 3.18935 19.1832C3.26789 19.0999 3.32627 19.0659 3.42917 19.1608C3.934 19.6265 4.44429 20.0868 4.95543 20.5463C5.69336 21.2094 6.43675 21.8676 7.17257 22.5327C7.7803 23.0822 8.37754 23.6429 8.98485 24.1924C9.72068 24.858 10.4632 25.5165 11.202 26.1788C11.538 26.4799 11.8715 26.7838 12.2054 27.087C12.9046 27.7211 13.6056 28.3531 14.3015 28.9909C14.5317 29.2015 14.5187 29.2086 14.3099 29.4321C13.4918 30.3088 12.6585 31.1718 11.8761 32.0804C11.2352 32.8248 10.2377 32.9591 9.40148 32.4279C8.90337 32.1115 8.49303 31.6968 8.05456 31.314C7.58921 30.9076 7.16837 30.4485 6.6858 30.0649C6.06673 29.5727 5.43884 29.695 4.99239 30.3312C4.71939 30.7206 4.59843 31.183 4.42372 31.6184C4.26622 32.0111 4.09234 32.3926 3.80464 32.7145C3.19103 33.4008 2.03731 33.4713 1.31828 33.0288C0.838228 32.7331 0.422014 32.3674 0.247297 31.8063C0.162878 31.5346 0.150278 31.251 0.122559 30.9964V30.9955Z" fill="#231F20"></path><path d="M7.84863 21.6464C10.1321 19.2013 12.4156 16.7563 14.6992 14.3108C16.7886 12.0735 18.8773 9.83616 20.9671 7.59927C21.0142 7.54909 21.0675 7.50431 21.1175 7.45703C21.12 7.67765 21.1251 7.89869 21.1251 8.11931C21.1255 10.2874 21.1251 12.455 21.1251 14.623C21.1251 14.7056 21.1204 14.7885 21.1183 14.871C21.078 14.9084 21.0352 14.9436 20.9978 14.9834C17.873 18.3334 14.7483 21.6833 11.624 25.0337C10.6718 24.1844 9.71929 23.3363 8.76842 22.4857C8.45888 22.2087 8.15523 21.9263 7.84863 21.646V21.6464Z" fill="#EC2327"></path><path d="M11.6244 25.0337C14.7488 21.6834 17.8735 18.3334 20.9983 14.9835C21.0357 14.9433 21.0785 14.9084 21.1188 14.8711C21.1213 15.6101 21.1255 16.3491 21.126 17.0881C21.1272 18.6216 21.1243 20.1552 21.1293 21.6888C21.1297 21.831 21.0877 21.9334 20.9924 22.0375C19.1129 24.0915 17.2368 26.1484 15.3599 28.2041C15.3027 28.2667 15.2654 28.3571 15.1507 28.2522C13.9777 27.1765 12.8004 26.1057 11.624 25.0337H11.6244Z" fill="#804199"></path><path d="M38.9231 56.5917C38.6921 57.1615 38.5442 57.7293 38.3292 58.2758C38.1444 58.7457 37.9672 59.2172 37.6589 59.629C37.5148 59.821 37.3414 59.906 37.1058 59.8907C36.8185 59.872 36.6261 59.7211 36.5043 59.4731C35.7656 57.9685 35.3582 56.3657 35.0621 54.7297C35.0066 54.4245 34.9436 54.1205 34.8962 53.8141C34.8735 53.6677 34.7689 53.5926 34.6774 53.4989C34.5837 53.4031 34.4388 53.3189 34.5068 53.1539C34.5782 52.9809 34.7374 52.9142 34.9138 52.9125C35.4245 52.9067 35.9357 52.908 36.4464 52.9121C36.606 52.9134 36.7408 52.9822 36.7782 53.1448C36.8143 53.3028 36.7446 53.4334 36.5921 53.5014C36.3788 53.5964 36.3452 53.7714 36.3712 53.9679C36.4443 54.5211 36.5148 55.0752 36.6354 55.6205C36.8114 56.4167 37.0117 57.2067 37.2876 57.9764C37.304 58.022 37.3179 58.0685 37.3351 58.1137C37.3578 58.173 37.3855 58.2348 37.4602 58.2352C37.5287 58.2352 37.5438 58.1697 37.5694 58.1228C37.7509 57.7919 37.8521 57.4311 37.9571 57.0736C38.1793 56.3176 38.3506 55.5492 38.4527 54.7687C38.4909 54.4772 38.5031 54.1757 38.4279 53.8829C38.3813 53.7005 38.3082 53.535 38.1377 53.4197C38.0335 53.3492 37.9449 53.2294 37.9882 53.102C38.0356 52.9635 38.1625 52.9042 38.3233 52.9063C38.834 52.9129 39.3452 52.91 39.8559 52.908C39.9899 52.9075 40.1054 52.9196 40.1541 53.0734C40.2057 53.2364 40.1616 53.3903 40.0226 53.4504C39.7198 53.5814 39.74 53.8203 39.7799 54.0588C39.9882 55.3041 40.401 56.493 40.8198 57.6799C40.8655 57.8101 40.9193 57.9379 40.9697 58.0668C40.9945 58.1299 41.0041 58.2182 41.0873 58.2215C41.1734 58.2252 41.1843 58.1373 41.2095 58.0739C41.4258 57.5261 41.5984 56.9654 41.7421 56.3948C41.9328 55.6383 42.1054 54.8782 42.2162 54.1056C42.2553 53.8323 42.1961 53.693 41.958 53.5549C41.8492 53.4919 41.7358 53.4342 41.6556 53.3355C41.5976 53.2642 41.548 53.1829 41.5989 53.0888C41.6438 53.0058 41.7148 52.9511 41.8173 52.9511C42.286 52.9511 42.7551 52.9445 43.2238 52.9544C43.4586 52.9594 43.5795 53.2086 43.3939 53.3384C43.0126 53.6055 43.068 53.9982 43.0113 54.3532C42.7765 55.8196 42.3435 57.23 41.8139 58.6142C41.7274 58.8402 41.6283 59.0613 41.5422 59.2873C41.4208 59.607 41.2221 59.8451 40.8571 59.8708C40.5233 59.8944 40.1398 59.6315 40.0054 59.2993C39.7404 58.6457 39.485 57.988 39.2242 57.3328C39.1255 57.0844 39.023 56.8377 38.9222 56.5901L38.9231 56.5917Z" fill="#231F20"></path><path d="M60.2632 59.2425C60.0188 59.0944 60.0054 58.8754 60.0087 58.6316C60.036 56.7957 59.9638 54.9594 60.0495 53.1236C60.0671 52.7537 59.8647 52.6073 59.5035 52.6943C59.1708 52.7748 58.8403 52.864 58.5064 52.9378C58.351 52.9722 58.2523 53.0564 58.217 53.2015C58.1792 53.3546 58.3178 53.4014 58.4136 53.4599C58.6223 53.5872 58.7366 53.7527 58.7118 54.0069C58.6958 54.1711 58.7088 54.3378 58.7088 54.5037C58.7088 54.704 58.7017 54.9047 58.7109 55.1046C58.7181 55.2568 58.6866 55.2987 58.5261 55.2369C57.9041 54.9976 57.2964 55.0905 56.7256 55.3874C56.0532 55.7366 55.7176 56.3263 55.5774 57.0516C55.4178 57.8752 55.5648 58.6299 56.1112 59.2661C56.8 60.0677 57.7979 60.0242 58.7559 59.5439C58.8865 59.4784 58.9407 59.473 59.0255 59.5821C59.0965 59.6742 59.1796 59.7567 59.3195 59.753C59.5711 59.7459 59.8231 59.7517 60.0751 59.7505C60.2007 59.7496 60.3208 59.7181 60.3699 59.5937C60.4237 59.4577 60.3825 59.315 60.2632 59.2425ZM58.7945 57.5488C58.7882 57.9631 58.8235 58.3127 58.6643 58.6345C58.3628 59.2437 57.5837 59.208 57.2204 58.7664C56.8743 58.3463 56.7937 57.8607 56.8478 57.3303C56.8882 56.9334 56.9663 56.5564 57.1637 56.2052C57.3527 55.8693 57.7924 55.647 58.1288 55.7304C58.4938 55.8208 58.7555 56.1728 58.7487 56.5888C58.7429 56.9338 58.8306 57.2743 58.7945 57.5488Z" fill="#231F20"></path><path d="M75.1554 59.2294C74.9446 59.0971 74.916 58.9113 74.9173 58.694C74.9211 57.8576 74.9185 57.0215 74.9185 55.9981C74.9433 55.157 74.8824 54.1282 74.9559 53.1001C74.9803 52.7568 74.7686 52.6087 74.4326 52.6896C74.0933 52.7713 73.7556 52.8625 73.4145 52.938C73.2591 52.9724 73.1609 53.0566 73.1252 53.2017C73.0874 53.3548 73.2285 53.3971 73.3213 53.4609C73.4746 53.5663 73.6174 53.6733 73.617 53.8827C73.6157 54.3044 73.614 54.7258 73.6182 55.1475C73.6195 55.2935 73.5674 55.3159 73.4431 55.2499C72.8245 54.9227 71.7199 55.1828 71.2159 55.6754C70.504 56.3717 70.3146 57.2289 70.4931 58.1686C70.6149 58.8076 70.9328 59.3542 71.5363 59.6727C72.2701 60.0596 72.9849 59.8805 73.6787 59.5388C73.756 59.5006 73.8165 59.426 73.8862 59.5338C74.0172 59.7349 74.2096 59.7702 74.433 59.754C74.6069 59.7411 74.7829 59.7498 74.9576 59.7515C75.1092 59.7532 75.2445 59.7133 75.3007 59.5649C75.3562 59.4197 75.2625 59.2966 75.1554 59.2294ZM73.6989 57.5665C73.6913 57.8343 73.7069 58.1014 73.6649 58.3706C73.604 58.7562 73.3604 58.9922 73.0168 59.0776C72.7468 59.1448 72.4561 59.076 72.2285 58.8607C71.7892 58.4452 71.7178 57.9214 71.7547 57.3616C71.7795 56.9875 71.8396 56.6226 72.0302 56.2896C72.1063 56.1569 72.181 56.0221 72.3074 55.9305C72.5666 55.7422 72.8513 55.6207 73.1634 55.7799C73.4813 55.9425 73.6594 56.2013 73.6636 56.5766C73.6678 56.9062 73.7203 57.2351 73.6989 57.5665Z" fill="#231F20"></path><path d="M31.6333 59.2134C31.4691 59.1011 31.4145 58.946 31.4141 58.7689C31.4111 57.0495 31.4095 55.3302 31.4162 53.6109C31.4166 53.4126 31.4703 53.2148 31.4519 53.0141C31.4279 52.7566 31.2801 52.6176 31.0357 52.6687C30.64 52.7516 30.2473 52.8544 29.8588 52.9668C29.7417 53.0008 29.6417 53.0995 29.6148 53.2306C29.5972 53.3164 29.664 53.3712 29.7354 53.4068C30.0529 53.5648 30.1944 53.8149 30.1532 54.1661C30.1444 54.2412 30.152 54.3179 30.152 54.3938C30.1478 54.6347 30.1444 54.8744 30.1188 55.1158C30.1008 55.2891 30.0525 55.2854 29.9193 55.2332C29.3103 54.9939 28.7135 55.0888 28.1591 55.3766C27.1982 55.8751 26.926 56.7642 26.9327 57.7462C26.9369 58.3339 27.1553 58.8821 27.582 59.3209C27.8739 59.6211 28.2158 59.8459 28.6493 59.8732C29.2049 59.9085 29.7349 59.8031 30.2209 59.5249C30.2944 59.4826 30.3422 59.4718 30.3939 59.5489C30.5102 59.7227 30.6782 59.7704 30.8836 59.7546C31.0642 59.7405 31.2469 59.748 31.4288 59.7526C31.5959 59.7567 31.7484 59.714 31.8105 59.5552C31.8719 59.3984 31.7454 59.2902 31.6333 59.2134ZM30.1936 57.5828C30.1784 57.8375 30.2221 58.1485 30.1528 58.457C30.0613 58.863 29.6173 59.1537 29.2108 59.0629C28.6703 58.9422 28.3267 58.5499 28.2708 57.9254C28.228 57.4431 28.2452 56.9575 28.4313 56.4967C28.5913 56.1003 28.8252 55.7818 29.2998 55.7271C29.7055 55.6802 30.1104 56.0236 30.1545 56.4329C30.194 56.7978 30.1944 57.1628 30.1936 57.5828Z" fill="#231F20"></path><path d="M61.3672 55.3572C61.5772 55.3572 61.7872 55.3551 61.9972 55.358C62.1459 55.3601 62.282 55.3945 62.3152 55.5649C62.3462 55.7238 62.2841 55.8299 62.1178 55.8764C62.0178 55.9042 61.9817 55.9742 61.9976 56.0845C62.1115 56.8783 62.2522 57.665 62.5621 58.4118C62.6188 58.5479 62.6348 58.7573 62.796 58.773C62.9573 58.7888 62.9552 58.5727 63.0115 58.4587C63.379 57.7098 63.5504 56.9243 63.4118 56.0899C63.392 55.9705 63.3782 55.8602 63.2156 55.8432C63.1152 55.8328 63.0661 55.7424 63.0485 55.6508C63.0296 55.5521 63.1123 55.5048 63.1791 55.4563C63.2433 55.4094 63.3194 55.3978 63.3983 55.3982C63.7973 55.399 64.1963 55.3953 64.5949 55.3999C64.8049 55.4024 64.9254 55.5823 64.786 55.7063C64.4647 55.9925 64.5781 56.318 64.6428 56.6386C64.7788 57.3166 64.9536 57.9847 65.2379 58.62C65.2749 58.703 65.2887 58.8294 65.4143 58.8241C65.5231 58.8195 65.5407 58.7042 65.5743 58.6254C65.8192 58.0523 66.0392 57.4713 66.1606 56.858C66.2043 56.6382 66.1837 56.4171 66.1787 56.1969C66.1757 56.068 66.0775 55.9879 65.975 55.9245C65.8473 55.8457 65.7448 55.7491 65.7994 55.5898C65.8544 55.4301 65.9901 55.3912 66.1539 55.3961C66.4408 55.4044 66.7276 55.3978 67.0145 55.3986C67.1283 55.3986 67.2593 55.3986 67.2992 55.5239C67.3408 55.6549 67.3509 55.803 67.2161 55.9025C67.0892 55.9962 67.0468 56.1223 67.0098 56.2699C66.7713 57.2299 66.4706 58.1701 66.046 59.0683C66.0107 59.143 65.9674 59.2147 65.9242 59.2856C65.4861 59.9968 65.6012 59.8645 64.7692 59.8749C64.5982 59.877 64.4827 59.7907 64.4147 59.6327C64.2555 59.2645 64.0926 58.8983 63.9275 58.5329C63.901 58.4745 63.8855 58.3878 63.791 58.4006C63.7142 58.4114 63.71 58.4873 63.6881 58.5437C63.552 58.8999 63.3937 59.2446 63.1766 59.5614C63.0346 59.7687 62.8595 59.8894 62.5865 59.8807C61.8658 59.8571 61.9964 59.9902 61.6612 59.3175C61.1824 58.3559 60.8649 57.3461 60.7616 56.2749C60.7444 56.097 60.7192 55.9191 60.5037 55.8424C60.3886 55.8013 60.3639 55.6844 60.4004 55.5786C60.4428 55.4554 60.531 55.3626 60.6751 55.3597C60.9061 55.3551 61.1371 55.3584 61.3676 55.3584V55.3576L61.3672 55.3572Z" fill="#231F20"></path><path d="M26.4117 58.6546C26.3021 58.5459 26.1265 58.5696 25.9665 58.7242C25.7733 58.9109 25.5562 59.063 25.2979 59.1381C24.4386 59.3873 23.7552 59.146 23.5868 58.2075C23.5671 58.096 23.5914 58.0454 23.7048 58.0533C23.8812 58.0653 24.0526 58.0284 24.2256 58.0105C24.7586 57.9558 25.2748 57.8438 25.7347 57.556C26.1416 57.3014 26.4701 56.9949 26.4197 56.5537C26.4272 55.9366 26.124 55.6015 25.6964 55.3826C25.0345 55.0434 24.3457 55.0828 23.67 55.3565C22.1584 55.9673 21.9152 57.6178 22.507 58.7649C22.9257 59.576 23.6792 59.8808 24.552 59.9115C25.276 59.9368 25.8825 59.6478 26.368 59.1145C26.5184 58.949 26.5373 58.7794 26.4117 58.6546ZM23.5179 57.189C23.5603 56.8233 23.6485 56.4741 23.8552 56.1581C24.0597 55.8462 24.3672 55.7409 24.7137 55.7363C25.0232 55.7326 25.242 56.0785 25.1832 56.4148C25.1063 56.8531 24.8417 57.1276 24.436 57.2832C24.2139 57.3678 23.9808 57.4101 23.6548 57.4436C23.5393 57.4673 23.4986 57.3557 23.5179 57.189Z" fill="#231F20"></path><path d="M53.2488 56.5174C53.2488 55.792 53.2454 55.0663 53.2513 54.341C53.2526 54.1735 53.2211 54.0117 53.2005 53.8479C53.1858 53.7297 53.1119 53.6501 53.0043 53.5962C52.9363 53.5618 52.8695 53.5216 52.8086 53.4759C52.6726 53.3739 52.6629 53.2226 52.8179 53.1641C53.2786 52.9899 53.7213 52.7502 54.2232 52.7063C54.4567 52.6859 54.5092 52.7627 54.4802 52.9866C54.4689 53.0753 54.4676 53.1653 54.4676 53.2549C54.4668 55.0788 54.4684 56.903 54.4655 58.7269C54.4655 58.9678 54.4823 59.1764 54.77 59.2672C54.9212 59.3153 54.9582 59.4646 54.9183 59.6143C54.8813 59.7533 54.762 59.7541 54.6469 59.7516C54.1858 59.7416 53.7272 59.8221 53.2652 59.7922C53.182 59.7868 53.0988 59.7765 53.0165 59.7649C52.8998 59.7487 52.7822 59.706 52.7641 59.5828C52.7465 59.4621 52.812 59.3352 52.9271 59.2938C53.2496 59.1768 53.2542 58.9276 53.2513 58.6526C53.2433 57.941 53.2488 57.2294 53.2488 56.5178V56.5174Z" fill="#231F20"></path><path d="M19.7375 57.7138C19.7375 57.1959 19.732 56.6779 19.7404 56.1599C19.7434 55.9899 19.6888 55.9157 19.5132 55.9348C19.4444 55.9422 19.3717 55.9426 19.3041 55.929C19.1659 55.9016 19.0504 55.834 19.0281 55.6835C19.005 55.5271 19.0777 55.416 19.2281 55.3592C19.2797 55.3397 19.3352 55.3164 19.3881 55.3173C19.8555 55.3243 20.1558 54.9851 20.2659 54.5924C20.3087 54.4394 20.3415 54.2838 20.3835 54.1308C20.4091 54.0379 20.4402 53.9467 20.5069 53.8708C20.5989 53.7667 20.7161 53.758 20.8329 53.7962C20.9408 53.8314 20.9971 53.9185 20.9966 54.0363C20.9958 54.3402 20.9966 54.6438 20.9975 54.9478C20.9983 55.2422 21.0269 55.2688 21.3184 55.2733C21.4994 55.2762 21.6796 55.2625 21.8606 55.3069C22.0601 55.3558 22.1164 55.5047 22.1138 55.6635C22.1113 55.8207 22.0017 55.9119 21.8291 55.941C21.6132 55.9775 21.3982 55.9808 21.1819 55.9758C21.0475 55.9729 20.9954 56.0231 20.9958 56.1575C20.9992 57.0275 20.995 57.8975 20.9987 58.7676C20.9996 59.0164 21.1537 59.1615 21.4074 59.169C21.533 59.1727 21.6594 59.1661 21.785 59.1715C21.9941 59.1806 22.121 59.3034 22.1248 59.4921C22.1277 59.653 22.0101 59.7483 21.7892 59.7496C21.2575 59.7525 20.7262 59.7533 20.1945 59.7492C19.9215 59.7471 19.7396 59.5617 19.7379 59.288C19.7346 58.7634 19.7371 58.2384 19.7367 57.7134L19.7375 57.7138Z" fill="#231F20"></path><path d="M7.17645 59.8346C6.90388 59.8346 6.6313 59.8346 6.35831 59.8346C6.21299 59.8346 6.05549 59.8205 6.02021 59.6562C5.98619 59.4978 6.10295 59.4132 6.24785 59.3568C6.43894 59.2826 6.51202 59.1333 6.51076 58.9301C6.50572 58.1986 6.499 57.4666 6.5137 56.7351C6.51958 56.4431 6.40325 56.2337 6.16259 56.1023C5.81609 55.9136 5.74512 55.7241 6.17645 55.4105C6.35075 55.2836 6.55318 55.2289 6.76066 55.1966C7.0093 55.158 7.19115 55.26 7.30833 55.4827C7.33101 55.5254 7.35201 55.569 7.37427 55.6121C7.52169 55.902 7.52757 55.8887 7.75101 55.666C8.06936 55.3483 8.44274 55.1281 8.92699 55.1916C9.14875 55.2206 9.38016 55.4085 9.43182 55.6332C9.47508 55.8207 9.47046 56.0056 9.29868 56.1437C9.1227 56.2851 8.78167 56.3179 8.58469 56.2101C8.3327 56.072 8.19494 56.0944 8.05676 56.3465C7.86272 56.7011 7.75857 57.0735 7.79594 57.494C7.83416 57.9253 7.8182 58.3632 7.79594 58.7966C7.78041 59.0976 7.83164 59.2245 8.12228 59.334C8.26844 59.3892 8.4083 59.4626 8.38016 59.6368C8.35118 59.8151 8.19284 59.8358 8.03618 59.8346C7.74975 59.8325 7.46289 59.8342 7.17645 59.8337V59.8346Z" fill="#231F20"></path><path d="M50.8971 57.99C50.8971 58.2869 50.9059 58.5843 50.8942 58.8808C50.8858 59.0881 50.9941 59.2001 51.1646 59.2789C51.2213 59.305 51.2848 59.3204 51.3368 59.3527C51.4238 59.4066 51.4855 59.485 51.4704 59.5924C51.4549 59.7031 51.3671 59.7442 51.2676 59.7757C51.097 59.8296 50.9366 59.7479 50.7694 59.7504C50.3079 59.7566 49.8463 59.7525 49.3847 59.7525C49.2642 59.7525 49.1243 59.7624 49.1033 59.6065C49.0848 59.4688 49.1697 59.3772 49.3049 59.3287C49.5158 59.2532 49.5993 59.1006 49.5977 58.8787C49.5914 58.1468 49.5867 57.4148 49.5998 56.6829C49.6048 56.4088 49.488 56.223 49.2776 56.0733C49.2096 56.0248 49.1348 55.9849 49.0706 55.9327C48.9479 55.8327 48.9324 55.7249 49.0382 55.5935C49.2675 55.3094 49.572 55.1784 49.9278 55.1526C50.0991 55.1402 50.2428 55.2053 50.3356 55.3563C50.3788 55.4268 50.4204 55.4989 50.4603 55.5715C50.6157 55.8522 50.6132 55.8344 50.84 55.6225C51.1617 55.3214 51.5187 55.0597 52.0101 55.1514C52.2545 55.197 52.4389 55.3272 52.5099 55.5678C52.5662 55.7589 52.5687 55.9567 52.3877 56.0986C52.1823 56.2591 51.937 56.2968 51.7195 56.1695C51.3692 55.9646 51.2352 56.111 51.0933 56.3868C50.9694 56.6277 50.8904 56.8848 50.8954 57.1619C50.9005 57.438 50.8967 57.7142 50.8967 57.9904L50.8971 57.99Z" fill="#231F20"></path><path d="M69.4179 57.2203C69.4179 57.759 69.4171 58.2973 69.4183 58.836C69.4188 59.0545 69.4549 59.2407 69.7182 59.3146C69.8791 59.3598 69.8862 59.6239 69.7447 59.728C69.6745 59.7794 69.5926 59.7927 69.5065 59.7927C69.0382 59.7919 68.5695 59.7927 68.1012 59.7915C68.0597 59.7915 68.0168 59.7886 67.9769 59.7778C67.8828 59.7525 67.782 59.7313 67.7489 59.6202C67.7127 59.4995 67.7778 59.4 67.8707 59.3589C68.2071 59.2096 68.2088 58.9347 68.2041 58.6316C68.1924 57.9208 68.2008 57.2095 68.1999 56.4983C68.1999 56.1869 68.1231 56.0944 67.811 56.0144C67.6997 55.9858 67.6229 55.9182 67.6166 55.8C67.6098 55.6689 67.7018 55.5939 67.8085 55.5553C67.9719 55.4964 68.1437 55.4603 68.3104 55.4098C68.504 55.3509 68.6968 55.2907 68.8875 55.2236C69.205 55.112 69.415 55.2501 69.4171 55.5843C69.4204 56.1297 69.4179 56.675 69.4179 57.2207V57.2203Z" fill="#231F20"></path><path d="M68.779 53.3672C69.2036 53.3664 69.4183 53.5613 69.4703 53.9955C69.5111 54.3339 69.32 54.5736 68.9395 54.6652C68.7736 54.7055 68.6093 54.7096 68.4456 54.6561C68.0902 54.54 67.9479 54.3107 67.9915 53.9242C68.0222 53.653 68.3116 53.3925 68.6119 53.3685C68.6673 53.3639 68.7232 53.3676 68.779 53.3676V53.3672Z" fill="#231F20"></path><path d="M72.7336 42.9222C73.031 42.9222 73.3283 42.9242 73.6261 42.9242C73.3287 42.9242 73.031 42.9222 72.7336 42.9226C72.4665 42.9226 72.1998 42.9209 71.9331 42.9209C72.1998 42.9209 72.4665 42.9226 72.7336 42.9222Z" fill="#010202"></path></g><defs><clipPath id="clip0_1833_737"><rect width="80" height="60" fill="white"></rect></clipPath></defs></svg>