<svg width="124" height="124" viewBox="0 0 124 124" fill="none" xmlns="http://www.w3.org/2000/svg">
<circle cx="62" cy="62" r="62" fill="white"/>
<path d="M68.7435 56.1681C77.3486 56.1681 84.3229 49.1939 84.3229 40.5825C84.3229 31.9773 77.3486 25 68.7435 25L44.7422 40.5856L68.7435 56.1681Z" fill="#1C75BC"/>
<path d="M36.5825 68.3822C27.9773 68.3822 21 61.4017 21 52.7965C21 44.1914 27.9773 37.2109 36.5825 37.2109L60.5838 52.7965L36.5825 68.3822Z" fill="#8DC63F"/>
<path d="M47.7131 25.5703L43.3359 39.6896L50.0585 35.3436L47.7131 25.5703Z" fill="#1C75BC"/>
<path d="M39.1135 98.8962H38.7811L38.6662 98.4209C38.371 98.803 37.9486 98.9956 37.4049 98.9956C36.7712 98.9956 36.299 98.7129 35.979 98.1444C35.8889 97.9953 35.8299 97.8337 35.7895 97.6598C35.7522 97.4889 35.7305 97.2839 35.7305 97.0478C35.7305 96.47 35.8889 96.0009 36.2089 95.6436C36.532 95.2801 36.9576 95.0938 37.4857 95.0938C37.8988 95.0938 38.253 95.2118 38.5543 95.4417C38.8588 95.6778 39.0172 95.9729 39.0514 96.3177H38.5605C38.5046 96.0692 38.3773 95.8735 38.194 95.7399C38.0076 95.6125 37.7653 95.5473 37.4826 95.5473C37.0974 95.5473 36.796 95.6778 36.5786 95.9512C36.358 96.2214 36.2462 96.5942 36.2462 97.0602C36.2462 97.5573 36.3487 97.93 36.5599 98.1879C36.7618 98.4395 37.0787 98.57 37.495 98.57C37.8429 98.57 38.1225 98.4613 38.3276 98.2438C38.5295 98.0263 38.6351 97.7281 38.6351 97.3522H37.4795V96.9204H39.1042V98.8962H39.1135Z" fill="#2B3B50"/>
<path d="M53.6239 98.9014H53.0181L52.987 98.771L52.9622 98.5721L52.9404 98.4106L52.9249 98.1714C52.9249 97.9073 52.9094 97.7334 52.8876 97.6557C52.869 97.5749 52.81 97.5035 52.723 97.4289C52.6111 97.3513 52.4838 97.3109 52.3378 97.3109H51.0548V98.8983H50.5391V95.1953H52.316C52.5148 95.1953 52.7043 95.2295 52.8752 95.2947C53.0429 95.3537 53.1859 95.4407 53.2822 95.5588C53.4157 95.7172 53.4872 95.9285 53.4872 96.177C53.4872 96.4007 53.4406 96.5777 53.366 96.7206C53.2822 96.8635 53.1517 96.9847 52.9653 97.0841C53.1268 97.1431 53.2387 97.2239 53.307 97.3202C53.3691 97.4134 53.4095 97.5377 53.4095 97.7023L53.453 98.5908C53.453 98.6716 53.512 98.7492 53.6239 98.8238V98.9014ZM52.9653 96.2547C52.9653 96.0838 52.9249 95.9378 52.8472 95.8291C52.7696 95.7172 52.6608 95.652 52.5179 95.6427L52.3409 95.624H52.3098H51.0548V96.8822H52.3409C52.5304 96.8822 52.6764 96.8263 52.7913 96.7144C52.9032 96.6026 52.9653 96.4504 52.9653 96.2547Z" fill="#2B3B50"/>
<path d="M68.6536 97.0447C68.6536 97.6287 68.4889 98.0978 68.1596 98.455C67.8272 98.8154 67.3954 98.9956 66.8456 98.9956C66.3081 98.9956 65.8763 98.8154 65.5408 98.4582C65.2115 98.1009 65.0469 97.6287 65.0469 97.0416C65.0469 96.4606 65.2115 95.9946 65.5408 95.6343C65.8701 95.2739 66.3019 95.0938 66.8487 95.0938C67.3892 95.0938 67.8241 95.2708 68.1534 95.625C68.4889 95.9822 68.6536 96.4482 68.6536 97.0447ZM68.1317 97.0447C68.1317 96.5942 68.0167 96.2308 67.7838 95.9574C67.5477 95.684 67.2339 95.5504 66.8456 95.5504C66.4666 95.5504 66.1528 95.684 65.9167 95.9605C65.6806 96.237 65.5626 96.6004 65.5626 97.0447C65.5626 97.5013 65.6806 97.8617 65.9167 98.1382C66.1528 98.4147 66.4666 98.5513 66.8518 98.5513C67.237 98.5513 67.5508 98.4147 67.7838 98.1382C68.0167 97.8617 68.1317 97.5013 68.1317 97.0447Z" fill="#2B3B50"/>
<path d="M82.9952 97.6961C82.9952 97.8514 82.9579 98.0192 82.8896 98.1869C82.815 98.3609 82.7187 98.4976 82.6007 98.6125C82.3366 98.8704 81.9638 98.9946 81.504 98.9946C80.92 98.9946 80.5037 98.7803 80.2583 98.3609C80.2117 98.2832 80.1682 98.1807 80.1372 98.0533C80.0937 97.9167 80.0781 97.8079 80.0781 97.7303V95.1953H80.5845V97.5594C80.5845 97.867 80.6653 98.1031 80.833 98.2863C81.0008 98.4603 81.2276 98.5504 81.5289 98.5504C81.7898 98.5504 82.0042 98.4789 82.1751 98.3392C82.3521 98.2025 82.4453 98.0223 82.4671 97.7986L82.4826 97.6309V97.5967V95.1984H82.989V97.6961H82.9952Z" fill="#2B3B50"/>
<path d="M97.196 96.2484C97.196 96.5529 97.0966 96.8107 96.9009 97.0158C96.7083 97.227 96.4722 97.3326 96.1833 97.3326H94.9314V98.8983H94.4219V95.1953H96.1087H96.1864C96.4753 95.1953 96.7114 95.2947 96.904 95.4935C97.0966 95.6955 97.196 95.9471 97.196 96.2484ZM96.6772 96.2484C96.6772 95.8322 96.4318 95.624 95.9472 95.624H94.9314V96.907L95.9969 96.8977C96.2175 96.8977 96.3852 96.8418 96.5002 96.7362C96.6182 96.6181 96.6772 96.4566 96.6772 96.2484Z" fill="#2B3B50"/>
<path d="M55.7905 59.6328V69.7788C53.9452 67.2998 51.2021 66.051 47.6265 66.051C43.911 66.051 40.9194 67.48 38.7324 70.3007C36.7628 72.8574 35.7656 76.0603 35.7656 79.8255C35.7656 83.6869 36.8094 86.9022 38.8535 89.3843C41.0592 92.0902 44.1192 93.4601 47.9589 93.4601C51.373 93.4601 54.0011 92.1865 55.7936 89.6608V92.3946H60.4162V59.6328H55.7905ZM54.0633 86.1256C52.7337 88.1324 50.8293 89.1079 48.2354 89.1079C45.6227 89.1079 43.7184 88.2535 42.4261 86.4859C41.2705 84.9078 40.6864 82.7021 40.6864 79.928C40.6864 77.1756 41.2829 74.9202 42.4603 73.2271C43.8116 71.2824 45.7159 70.3411 48.2944 70.3411C50.8107 70.3411 52.6715 71.1923 54.0042 72.9413C55.1878 74.5226 55.7905 76.6599 55.7905 79.2973C55.7905 82.1026 55.2065 84.3983 54.0633 86.1256Z" fill="#2B3B50"/>
<path d="M64.1719 59.6328V92.3946H68.7137V89.6608C70.5061 92.1865 73.1374 93.4601 76.5639 93.4601C80.4037 93.4601 83.4698 92.0933 85.6755 89.3906C87.7258 86.9053 88.7727 83.6869 88.7727 79.8286C88.7727 76.0665 87.7662 72.8605 85.7935 70.3038C83.6003 67.4831 80.6087 66.0541 76.8932 66.0541C73.3052 66.0541 70.559 67.3091 68.7137 69.7851V59.6359H64.1719V59.6328ZM76.331 89.1079C73.7152 89.1079 71.7985 88.1386 70.4689 86.1535C69.307 84.4045 68.7106 82.1057 68.7106 79.3036C68.7106 76.6661 69.3101 74.5257 70.4999 72.9506C71.8295 71.1985 73.6997 70.3473 76.2284 70.3473C78.81 70.3473 80.7143 71.2886 82.0688 73.2333C83.243 74.9233 83.8395 77.1818 83.8395 79.9342C83.8395 86.1069 81.3853 89.1079 76.331 89.1079Z" fill="#2B3B50"/>
<path d="M97.1597 59.6328H92.4844V92.3946H97.1597V59.6328Z" fill="#2B3B50"/>
<path d="M100.446 59.6328C100.729 59.6328 100.993 59.6856 101.245 59.7881C101.493 59.8907 101.717 60.0429 101.913 60.2448C102.102 60.4374 102.248 60.6549 102.348 60.9003C102.447 61.1457 102.497 61.4036 102.497 61.68C102.497 61.9627 102.447 62.2268 102.345 62.4753C102.242 62.7238 102.093 62.9413 101.897 63.1308C101.698 63.3234 101.475 63.4725 101.226 63.575C100.978 63.6776 100.717 63.7304 100.45 63.7304C100.179 63.7304 99.9183 63.6776 99.6667 63.5719C99.4182 63.4663 99.1945 63.3141 98.9988 63.1153C98.8062 62.9196 98.6571 62.699 98.5546 62.4536C98.4521 62.2082 98.4023 61.9503 98.4023 61.6831C98.4023 61.4129 98.4552 61.1488 98.5608 60.8972C98.6664 60.6456 98.8186 60.4188 99.0174 60.22C99.21 60.0273 99.4244 59.8844 99.6667 59.785C99.909 59.6825 100.167 59.6328 100.446 59.6328ZM100.45 59.9404C100.213 59.9404 99.9929 59.9839 99.7879 60.0646C99.5828 60.1485 99.3996 60.2728 99.2349 60.4343C99.064 60.6083 98.9367 60.8009 98.8435 61.0121C98.7534 61.2265 98.7068 61.447 98.7068 61.6769C98.7068 61.9068 98.7503 62.1274 98.8373 62.3355C98.9242 62.5437 99.0485 62.7301 99.2132 62.8978C99.3778 63.0656 99.5673 63.1929 99.7754 63.283C99.9836 63.3731 100.201 63.4166 100.422 63.4166C100.661 63.4166 100.888 63.3731 101.102 63.2861C101.316 63.1991 101.509 63.0718 101.68 62.904C101.844 62.7456 101.969 62.5623 102.059 62.3573C102.146 62.1522 102.192 61.9317 102.192 61.7018C102.192 61.4564 102.149 61.2296 102.068 61.0183C101.984 60.8071 101.86 60.6176 101.698 60.4529C101.528 60.2852 101.338 60.1547 101.127 60.0677C100.909 59.9839 100.686 59.9404 100.45 59.9404ZM99.6139 60.4933H100.496C100.816 60.4933 101.058 60.5461 101.223 60.6518C101.388 60.7574 101.469 60.9127 101.469 61.1177C101.469 61.2855 101.425 61.4253 101.335 61.534C101.248 61.6428 101.121 61.7173 100.956 61.7515L101.469 62.7922H100.919L100.465 61.8323H100.108V62.7922H99.617V60.4933H99.6139ZM100.105 60.8009V61.5216H100.428C100.614 61.5216 100.748 61.4936 100.832 61.4377C100.916 61.3818 100.959 61.2917 100.959 61.1706C100.959 61.0432 100.916 60.95 100.825 60.891C100.735 60.8319 100.596 60.8009 100.403 60.8009H100.105V60.8009Z" fill="#2B3B50"/>
</svg>
