<?xml version="1.0" encoding="utf-8"?>
<!-- Generator: Adobe Illustrator 27.4.0, SVG Export Plug-In . SVG Version: 6.00 Build 0)  -->
<svg version="1.1" id="Layer_1" xmlns="http://www.w3.org/2000/svg" xmlns:xlink="http://www.w3.org/1999/xlink" x="0px" y="0px"
	 viewBox="0 0 48.17 48.17" style="enable-background:new 0 0 48.17 48.17;" xml:space="preserve">
<style type="text/css">
	.st0{fill:#5E4C79;}
</style>
<g>
	<path class="st0" d="M24.08,0C10.8,0,0,10.8,0,24.08s10.8,24.08,24.08,24.08s24.08-10.8,24.08-24.08S37.37,0,24.08,0z M26.12,45.39
		c-5.24,0-10.05-1.91-13.76-5.07c3.32,2.42,7.4,3.87,11.82,3.87c11.09,0,20.11-9.02,20.11-20.11S35.26,3.98,24.17,3.98
		c-4.42,0-8.49,1.45-11.82,3.87c3.72-3.15,8.52-5.07,13.76-5.07c11.75,0,21.3,9.56,21.3,21.3S37.86,45.39,26.12,45.39z M24.17,4.73
		c10.67,0,19.36,8.68,19.36,19.36s-8.68,19.36-19.36,19.36S4.81,34.76,4.81,24.08S13.5,4.73,24.17,4.73z M0.75,24.08
		c0-12.87,10.47-23.33,23.33-23.33c5.82,0,11.14,2.14,15.23,5.68c-3.68-2.76-8.25-4.4-13.2-4.4c-12.16,0-22.05,9.89-22.05,22.05
		s9.89,22.05,22.05,22.05c4.95,0,9.52-1.64,13.2-4.4c-4.09,3.53-9.41,5.68-15.23,5.68C11.22,47.42,0.75,36.95,0.75,24.08z"/>
	<g>
		<path class="st0" d="M31.44,26.85c-0.22-0.14-0.48-0.21-0.78-0.21c-0.44,0-0.79,0.15-1.07,0.45c-0.28,0.3-0.42,0.69-0.42,1.17
			c0,0.47,0.14,0.86,0.42,1.16c0.28,0.3,0.63,0.45,1.07,0.45c0.29,0,0.55-0.07,0.78-0.21c0.22-0.14,0.4-0.33,0.53-0.57
			c0.13-0.24,0.19-0.52,0.19-0.84c0-0.32-0.06-0.6-0.19-0.84C31.84,27.18,31.66,26.99,31.44,26.85z"/>
		<path class="st0" d="M24.11,8.33c-8.65,0-15.67,7.01-15.67,15.67s7.01,15.67,15.67,15.67s15.67-7.01,15.67-15.67
			S32.77,8.33,24.11,8.33z M21.44,30.62h-0.99v-2.66c0-0.88-0.34-1.32-1.02-1.32c-0.37,0-0.67,0.12-0.88,0.37
			c-0.21,0.25-0.32,0.59-0.32,1.04v2.57h-0.99v-7.57h0.99v3.55c0.14-0.27,0.34-0.47,0.6-0.62c0.26-0.15,0.56-0.22,0.89-0.22
			c0.55,0,0.98,0.17,1.27,0.52c0.3,0.35,0.44,0.84,0.44,1.49V30.62z M21.66,17.98c-0.2,0.25-0.3,0.59-0.3,1.04v2.57h-0.99v-2.67
			c0-0.87-0.33-1.31-1-1.31c-0.36,0-0.64,0.12-0.85,0.37c-0.2,0.25-0.3,0.59-0.3,1.03v2.58h-0.98v-4.71h0.94l0.01,0.74
			c0.13-0.28,0.33-0.5,0.59-0.65c0.26-0.16,0.56-0.23,0.91-0.23c0.74,0,1.24,0.33,1.5,0.99c0.12-0.3,0.33-0.54,0.61-0.72
			c0.28-0.18,0.61-0.27,0.97-0.27c0.55,0,0.98,0.17,1.27,0.52c0.3,0.35,0.44,0.84,0.44,1.49v2.85h-0.98v-2.66
			c0-0.88-0.34-1.32-1.02-1.32C22.14,17.61,21.86,17.73,21.66,17.98z M26.89,28.76c0,0.64-0.18,1.14-0.54,1.48
			c-0.36,0.35-0.87,0.52-1.53,0.52c-0.66,0-1.17-0.17-1.54-0.52c-0.36-0.35-0.55-0.84-0.55-1.48v-2.85h0.99v2.84
			c0,0.76,0.37,1.14,1.1,1.14c0.72,0,1.07-0.38,1.07-1.14v-2.84h0.99V28.76z M25.84,21.59v-4.71h0.99v4.71H25.84z M26.77,15.56
			c-0.12,0.12-0.27,0.18-0.45,0.18c-0.18,0-0.33-0.06-0.45-0.18c-0.12-0.12-0.18-0.27-0.18-0.45c0-0.18,0.06-0.33,0.18-0.45
			c0.12-0.12,0.27-0.18,0.45-0.18c0.18,0,0.33,0.06,0.45,0.18c0.12,0.12,0.18,0.27,0.18,0.45C26.95,15.29,26.89,15.44,26.77,15.56z
			 M32.85,29.53c-0.21,0.38-0.48,0.68-0.83,0.9c-0.35,0.22-0.73,0.34-1.16,0.34c-0.35,0-0.68-0.08-0.96-0.25
			c-0.29-0.16-0.51-0.4-0.67-0.7l-0.02,0.79h-0.95v-7.57h0.99v3.63c0.37-0.62,0.93-0.92,1.7-0.92c0.43,0,0.81,0.11,1.14,0.32
			c0.33,0.21,0.59,0.51,0.78,0.89c0.19,0.38,0.28,0.81,0.28,1.29C33.16,28.73,33.05,29.15,32.85,29.53z"/>
	</g>
</g>
</svg>
